:FULLY-SPECIFIED
:FORCE-ALL-JOINTS-BE-3DOF
:DEGREES
849
root 3.97418 16.3427 28.4429 -10.1472 6.39975 357.905
lfemur -21.441 1.43302 -16.0721
ltibia 36.4772 0 0
lfoot -2.60751 -20.3093 0
ltoes 6.97428 0 0
rfemur -28.1239 -4.27826 -0.626552
rtibia 72.7504 0 0
rfoot 24.1631 11.0338 0
rtoes -14.6235 0 0
lowerback 3.81252 2.89879 -1.43039
upperback 1.0123 3.68288 0.469087
thorax -1.16417 1.84222 1.39963
lowerneck -6.28952 -3.69595 2.84407
upperneck 10.0838 -5.455 1.71692
head 4.39024 -2.49332 -0.22748
lclavicle 3.53262e-14 -1.55512e-14 0
lhumerus -48.8762 -8.72383 82.4343
lradius 53.9352 0 0
lwrist 19.4599 0 0
lhand -1.67368 3.63718 0
lfingers 7.12502 0 0
lthumb 24.0111 32.3542 0
rclavicle 3.53262e-14 -1.55512e-14 0
rhumerus -40.8849 15.2068 -64.9439
rradius 50.6728 0 0
rwrist 8.16582 0 0
rhand -25.2544 -25.0746 0
rfingers 7.12502 0 0
rthumb 1.26319 -775.042 0
850
root 3.98627 16.3613 28.4932 -10.6694 7.17918 357.995
lfemur -20.6661 1.47669 -16.3997
ltibia 36.2602 0 0
lfoot -2.55755 -21.5083 0
ltoes 8.67147 0 0
rfemur -30.1148 -3.56645 -0.995934
rtibia 71.1923 0 0
rfoot 22.961 9.71833 0
rtoes -13.5507 0 0
lowerback 4.45728 2.61832 -1.63211
upperback 1.23785 3.28976 0.387368
thorax -1.284 1.64615 1.43253
lowerneck -6.27392 -3.68295 2.82185
upperneck 10.0548 -5.44198 1.7869
head 4.38068 -2.48479 -0.199212
lclavicle 3.547e-14 -1.61856e-14 0
lhumerus -48.015 -9.27111 82.1098
lradius 53.9372 0 0
lwrist 19.781 0 0
lhand -1.40006 3.52073 0
lfingers 7.12502 0 0
lthumb 24.2784 32.244 0
rclavicle 3.547e-14 -1.61856e-14 0
rhumerus -41.6079 14.6305 -64.0549
rradius 50.2655 0 0
rwrist 8.20378 0 0
rhand -23.7038 -24.8882 0
rfingers 7.12502 0 0
rthumb 2.75964 -774.845 0
851
root 3.99347 16.3807 28.5327 -11.1571 7.95422 358.073
lfemur -19.9176 1.53457 -16.6802
ltibia 35.9938 0 0
lfoot -2.53175 -22.6007 0
ltoes 10.4041 0 0
rfemur -32.0865 -2.84252 -1.26765
rtibia 69.5106 0 0
rfoot 21.6242 8.34764 0
rtoes -12.4931 0 0
lowerback 5.10868 2.3389 -1.8213
upperback 1.46577 2.8976 0.300764
thorax -1.40165 1.4506 1.4545
lowerneck -6.25765 -3.66342 2.79954
upperneck 9.99378 -5.41948 1.85983
head 4.36042 -2.47205 -0.169263
lclavicle 3.54493e-14 -1.67718e-14 0
lhumerus -47.1425 -9.84966 81.8106
lradius 53.9414 0 0
lwrist 20.102 0 0
lhand -1.10952 3.41718 0
lfingers 7.12502 0 0
lthumb 24.5614 32.1397 0
rclavicle 3.54493e-14 -1.67718e-14 0
rhumerus -42.3151 14.0814 -63.2554
rradius 49.9217 0 0
rwrist 8.18002 0 0
rhand -22.1181 -24.7255 0
rfingers 7.12502 0 0
rthumb 4.28999 -774.668 0
852
root 3.99661 16.4009 28.5648 -11.6131 8.73095 358.141
lfemur -19.1931 1.61656 -16.9228
ltibia 35.6937 0 0
lfoot -2.5328 -23.5834 0
ltoes 12.1426 0 0
rfemur -34.0624 -2.13029 -1.4325
rtibia 67.7667 0 0
rfoot 20.1893 6.95687 0
rtoes -11.4529 0 0
lowerback 5.76731 2.05795 -2.00251
upperback 1.69629 2.50268 0.209038
thorax -1.51753 1.25374 1.46819
lowerneck -6.24203 -3.63855 2.77656
upperneck 9.90386 -5.38923 1.93676
head 4.33079 -2.45586 -0.137327
lclavicle 3.52501e-14 -1.73065e-14 0
lhumerus -46.2578 -10.4705 81.5386
lradius 53.952 0 0
lwrist 20.42 0 0
lhand -0.788462 3.33078 0
lfingers 7.12502 0 0
lthumb 24.8729 32.0418 0
rclavicle 3.52501e-14 -1.73065e-14 0
rhumerus -43.0092 13.5266 -62.5218
rradius 49.6471 0 0
rwrist 8.08472 0 0
rhand -20.5355 -24.6042 0
rfingers 7.12502 0 0
rthumb 5.81731 -774.529 0
853
root 3.99657 16.4216 28.5928 -12.0407 9.51548 358.203
lfemur -18.49 1.73258 -17.1367
ltibia 35.3752 0 0
lfoot -2.56342 -24.4536 0
ltoes 13.8574 0 0
rfemur -36.0658 -1.45352 -1.48126
rtibia 66.0224 0 0
rfoot 18.6931 5.58112 0
rtoes -10.4323 0 0
lowerback 6.43377 1.7729 -2.18032
upperback 1.92965 2.10131 0.111953
thorax -1.63205 1.05372 1.47628
lowerneck -6.22839 -3.60955 2.75231
upperneck 9.78835 -5.35294 2.0187
head 4.29314 -2.437 -0.103101
lclavicle 3.48585e-14 -1.77863e-14 0
lhumerus -45.3599 -11.1448 81.2956
lradius 53.9734 0 0
lwrist 20.7323 0 0
lhand -0.42326 3.26576 0
lfingers 7.12502 0 0
lthumb 25.2256 31.9505 0
rclavicle 3.48585e-14 -1.77863e-14 0
rhumerus -43.6928 12.9335 -61.83
rradius 49.4475 0 0
rwrist 7.90811 0 0
rhand -18.9944 -24.5423 0
rfingers 7.12502 0 0
rthumb 7.30467 -774.446 0
854
root 3.99419 16.4425 28.62 -12.4427 10.3139 358.261
lfemur -17.8059 1.89253 -17.331
ltibia 35.054 0 0
lfoot -2.62632 -25.2083 0
ltoes 15.5191 0 0
rfemur -38.1201 -0.836028 -1.40471
rtibia 64.3393 0 0
rfoot 17.1721 4.25551 0
rtoes -9.43312 0 0
lowerback 7.10866 1.48116 -2.35928
upperback 2.16607 1.68977 0.00927186
thorax -1.74562 0.848679 1.48141
lowerneck -6.21803 -3.57762 2.72622
upperneck 9.65052 -5.31233 2.1067
head 4.24882 -2.41622 -0.0662792
lclavicle 3.42607e-14 -1.82079e-14 0
lhumerus -44.448 -11.8836 81.0835
lradius 54.01 0 0
lwrist 21.0358 0 0
lhand -0.000303276 3.22638 0
lfingers 7.12502 0 0
lthumb 25.6323 31.8661 0
rclavicle 3.42607e-14 -1.82079e-14 0
rhumerus -44.3686 12.2693 -61.1561
rradius 49.3286 0 0
rwrist 7.64037 0 0
rhand -17.533 -24.5576 0
rfingers 7.12502 0 0
rthumb 8.71513 -774.438 0
855
root 3.99031 16.4634 28.6499 -12.8223 11.1322 358.318
lfemur -17.1383 2.10632 -17.5149
ltibia 34.7455 0 0
lfoot -2.72422 -25.8444 0
ltoes 17.0982 0 0
rfemur -40.2486 -0.301595 -1.19365
rtibia 62.7789 0 0
rfoot 15.6632 3.01513 0
rtoes -8.45765 0 0
lowerback 7.79258 1.18017 -2.54396
upperback 2.40579 1.26438 -0.0992416
thorax -1.85865 0.63678 1.48627
lowerneck -6.21228 -3.54396 2.69771
upperneck 9.49364 -5.26911 2.20178
head 4.19917 -2.3943 -0.026558
lclavicle 3.34428e-14 -1.85679e-14 0
lhumerus -43.5212 -12.6979 80.9042
lradius 54.0659 0 0
lwrist 21.3279 0 0
lhand 0.494021 3.21688 0
lfingers 7.12502 0 0
lthumb 26.1059 31.7889 0
rclavicle 3.34428e-14 -1.85679e-14 0
rhumerus -45.0393 11.5011 -60.4763
rradius 49.2962 0 0
rwrist 7.27173 0 0
rhand -16.1896 -24.668 0
rfingers 7.12502 0 0
rthumb 10.0118 -774.521 0
856
root 3.98579 16.484 28.6857 -13.1825 11.9767 358.377
lfemur -16.4847 2.38386 -17.6976
ltibia 34.4654 0 0
lfoot -2.85984 -26.359 0
ltoes 18.565 0 0
rfemur -42.4747 0.125981 -0.838857
rtibia 61.4028 0 0
rfoot 14.203 1.8951 0
rtoes -7.50793 0 0
lowerback 8.48613 0.867339 -2.73893
upperback 2.64905 0.821415 -0.213824
thorax -1.97156 0.416174 1.49351
lowerneck -6.21246 -3.50977 2.66617
upperneck 9.32099 -5.22501 2.30498
head 4.14553 -2.37201 0.0163672
lclavicle 3.23909e-14 -1.88631e-14 0
lhumerus -42.5784 -13.5988 80.7594
lradius 54.1456 0 0
lwrist 21.6057 0 0
lhand 1.07333 3.24151 0
lfingers 7.12502 0 0
lthumb 26.6591 31.7193 0
rclavicle 3.23909e-14 -1.88631e-14 0
rhumerus -45.7074 10.5963 -59.7665
rradius 49.3559 0 0
rwrist 6.79238 0 0
rhand -15.0024 -24.8912 0
rfingers 7.12502 0 0
rthumb 11.1577 -774.714 0
857
root 3.98149 16.5041 28.7309 -13.5263 12.8532 358.44
lfemur -15.8427 2.73504 -17.8882
ltibia 34.2291 0 0
lfoot -3.03587 -26.749 0
ltoes 19.8902 0 0
rfemur -44.8218 0.422908 -0.33112
rtibia 60.2728 0 0
rfoot 12.8283 0.93053 0
rtoes -6.58603 0 0
lowerback 9.1899 0.540098 -2.94874
upperback 2.89606 0.35718 -0.334713
thorax -2.08477 0.185012 1.50579
lowerneck -6.21989 -3.47627 2.63104
upperneck 9.13584 -5.18174 2.41731
head 4.08926 -2.3501 0.0628009
lclavicle 3.10911e-14 -1.909e-14 0
lhumerus -41.6188 -14.5974 80.6511
lradius 54.2533 0 0
lwrist 21.8662 0 0
lhand 1.75123 3.30452 0
lfingers 7.12502 0 0
lthumb 27.3048 31.6574 0
rclavicle 3.10911e-14 -1.909e-14 0
rhumerus -46.3757 9.522 -59.0029
rradius 49.5136 0 0
rwrist 6.19253 0 0
rhand -14.0098 -25.2451 0
rfingers 7.12502 0 0
rthumb 12.1159 -775.035 0
858
root 3.97825 16.5234 28.7887 -13.8567 13.768 358.511
lfemur -15.2097 3.16979 -18.0959
ltibia 34.0522 0 0
lfoot -3.25505 -27.0116 0
ltoes 21.0441 0 0
rfemur -47.3133 0.565392 0.338776
rtibia 59.4504 0 0
rfoot 11.5756 0.156522 0
rtoes -5.69406 0 0
lowerback 9.9045 0.195868 -3.17797
upperback 3.14708 -0.132031 -0.462145
thorax -2.19868 -0.0585525 1.52579
lowerneck -6.23588 -3.44464 2.59173
upperneck 8.94147 -5.14102 2.53982
head 4.0317 -2.32935 0.113048
lclavicle 2.95295e-14 -1.92452e-14 0
lhumerus -40.6415 -15.7048 80.581
lradius 54.3934 0 0
lwrist 22.1067 0 0
lhand 2.54134 3.41014 0
lfingers 7.12502 0 0
lthumb 28.0557 31.6036 0
rclavicle 2.95295e-14 -1.92452e-14 0
rhumerus -47.0467 8.24553 -58.1617
rradius 49.7749 0 0
rwrist 5.46238 0 0
rhand -13.2501 -25.7475 0
rfingers 7.12502 0 0
rthumb 12.8494 -775.502 0
859
root 3.97692 16.5418 28.8626 -14.1769 14.7272 358.593
lfemur -14.5833 3.698 -18.33
ltibia 33.9502 0 0
lfoot -3.52007 -27.1437 0
ltoes 21.9973 0 0
rfemur -49.9724 0.52964 1.18004
rtibia 58.9973 0 0
rfoot 10.4818 -0.391814 0
rtoes -4.83409 0 0
lowerback 10.6305 -0.167925 -3.43117
upperback 3.40232 -0.649921 -0.596357
thorax -2.31371 -0.316367 1.55617
lowerneck -6.26175 -3.41609 2.54765
upperneck 8.74114 -5.10457 2.67354
head 3.97419 -2.31052 0.167411
lclavicle 2.76923e-14 -1.93256e-14 0
lhumerus -39.6455 -16.932 80.551
lradius 54.5702 0 0
lwrist 22.3244 0 0
lhand 3.45728 3.56263 0
lfingers 7.12502 0 0
lthumb 28.9246 31.5582 0
rclavicle 2.76923e-14 -1.93256e-14 0
rhumerus -47.7231 6.73408 -57.2188
rradius 50.1457 0 0
rwrist 4.59214 0 0
rhand -12.7615 -26.4164 0
rfingers 7.12502 0 0
rthumb 13.3215 -776.133 0
860
root 3.97836 16.5589 28.9559 -14.4897 15.7367 358.688
lfemur -13.9609 4.32959 -18.5994
ltibia 33.9386 0 0
lfoot -3.83366 -27.1424 0
ltoes 22.7202 0 0
rfemur -52.8227 0.291858 2.2019
rtibia 58.975 0 0
rfoot 9.5835 -0.679368 0
rtoes -4.00822 0 0
lowerback 11.3686 -0.55386 -3.71291
upperback 3.66202 -1.2002 -0.737586
thorax -2.43027 -0.59028 1.59958
lowerneck -6.29882 -3.39183 2.49821
upperneck 8.53813 -5.0741 2.81949
head 3.91808 -2.29438 0.226197
lclavicle 2.55656e-14 -1.93276e-14 0
lhumerus -38.63 -18.2901 80.563
lradius 54.788 0 0
lwrist 22.5163 0 0
lhand 4.51265 3.76623 0
lfingers 7.12502 0 0
lthumb 29.9242 31.5215 0
rclavicle 2.55656e-14 -1.93276e-14 0
rhumerus -48.4076 4.9549 -56.1503
rradius 50.6316 0 0
rwrist 3.57202 0 0
rhand -12.5823 -27.2695 0
rfingers 7.12502 0 0
rthumb 13.495 -776.945 0
861
root 3.98342 16.5746 29.0719 -14.7984 16.8028 358.799
lfemur -13.3402 5.07445 -18.9136
ltibia 34.033 0 0
lfoot -4.19853 -27.0045 0
ltoes 23.1833 0 0
rfemur -55.8873 -0.171748 3.41355
rtibia 59.4451 0 0
rfoot 8.91742 -0.671034 0
rtoes -3.21854 0 0
lowerback 12.1192 -0.964513 -4.02776
upperback 3.92642 -1.78656 -0.886068
thorax -2.54878 -0.882139 1.6587
lowerneck -6.34841 -3.37306 2.44284
upperneck 8.33572 -5.05134 2.97871
head 3.86471 -2.28169 0.289709
lclavicle 2.31354e-14 -1.92479e-14 0
lhumerus -37.5939 -19.7902 80.6188
lradius 55.0511 0 0
lwrist 22.6797 0 0
lhand 5.72107 4.02519 0
lfingers 7.12502 0 0
lthumb 31.0675 31.4938 0
rclavicle 2.31354e-14 -1.92479e-14 0
rhumerus -49.1029 2.87522 -54.9324
rradius 51.2384 0 0
rwrist 2.39221 0 0
rhand -12.7507 -28.3246 0
rfingers 7.12502 0 0
rthumb 13.3332 -777.957 0
862
root 3.99294 16.5885 29.214 -15.1059 17.9314 358.929
lfemur -12.7186 5.94251 -19.2815
ltibia 34.2489 0 0
lfoot -4.61738 -26.7273 0
ltoes 23.3572 0 0
rfemur -59.1898 -0.884971 4.82422
rtibia 60.4694 0 0
rfoot 8.52027 -0.331702 0
rtoes -2.46714 0 0
lowerback 12.8831 -1.40246 -4.38027
upperback 4.19574 -2.41271 -1.04204
thorax -2.66964 -1.19379 1.73619
lowerneck -6.41184 -3.36098 2.38095
upperneck 8.13717 -5.03799 3.15223
head 3.81544 -2.27323 0.358251
lclavicle 2.03879e-14 -1.90833e-14 0
lhumerus -36.5364 -21.4433 80.7202
lradius 55.3638 0 0
lwrist 22.8117 0 0
lhand 7.09616 4.34375 0
lfingers 7.12502 0 0
lthumb 32.3672 31.4754 0
rclavicle 2.03879e-14 -1.90833e-14 0
rhumerus -49.8115 0.462276 -53.5411
rradius 51.9718 0 0
rwrist 1.04293 0 0
rhand -13.3052 -29.5997 0
rfingers 7.12502 0 0
rthumb 12.799 -779.187 0
